<?xml version="1.0" encoding="utf-8"?>
<!-- Generator: Adobe Illustrator 24.0.1, SVG Export Plug-In . SVG Version: 6.00 Build 0)  -->
<svg version="1.1" id="Camada_1" xmlns="http://www.w3.org/2000/svg" xmlns:xlink="http://www.w3.org/1999/xlink" x="0px" y="0px"
	 viewBox="0 0 800 600" style="enable-background:new 0 0 800 600;" xml:space="preserve">
<style type="text/css">
	.st0{fill:#DB163B;}
	.st1{fill:#FBFBFB;}
</style>
<path class="st0" d="M434.85,308.14c-12.67-45.85-31.22-88.31-39.44-134.31c-11.94,52.22-31.14,101.59-46.95,151.99
	c-2.6,8.28-1.53,10.25,7.27,9.98c19.85-0.61,39.74,0.01,59.61-0.31c6.41-0.1,9.06,0.69,5.94,7.81
	c-7.68,17.54-14.97,35.26-22.17,53.01c-1.78,4.4-4.46,5.65-9.02,5.59c-18.34-0.23-36.69,0.19-55.02-0.25
	c-6.3-0.15-9.1,1.76-10.89,7.88c-6.94,23.69-14.71,47.13-21.59,70.83c-1.72,5.94-4.51,7.42-10.25,7.36
	c-25.37-0.26-50.75-0.1-76.12-0.12c-10.58-0.01-10.63-0.05-6.83-10.46c26.3-72.19,52.63-144.37,78.95-216.55
	c18.16-49.82,36.44-99.59,54.36-149.5c2.22-6.18,5.16-8.33,11.79-8.24c28.73,0.38,57.48,0.38,86.21,0
	c6.63-0.09,9.62,2.01,11.75,8.27c8.94,26.26,18.44,52.32,27.74,78.46c1.34,3.76,2.14,7.16,0.35,11.38
	c-14.36,33.86-28.4,67.86-42.57,101.8C437.39,304.11,436.49,305.32,434.85,308.14z"/>
<path class="st1" d="M366.55,526.07c9.31-22.21,18.26-43.47,27.14-64.76c52.06-124.82,104.18-249.61,156-374.52
	c2.95-7.11,6.22-9.91,14.29-9.66c22.51,0.7,45.06,0.24,68.49,0.24c-12.7,30.29-25.08,59.82-37.45,89.34
	c-49.33,117.66-98.65,235.33-148.01,352.98c-1.31,3.13-1.73,6.61-6.99,6.54C415.96,525.89,391.89,526.07,366.55,526.07z"/>
<path class="st1" d="M97.17,303.77c42.41,17.04,84.18,33.94,126.07,50.52c5.85,2.32,8.08,4.29,5.25,11
	c-5.56,13.16-10.07,26.77-14.84,40.25c-1.34,3.81-2.68,5.13-6.99,3.16c-58.96-26.99-118-53.81-177.05-80.59
	c-3.46-1.57-4.99-3.53-4.88-7.57c0.32-11.28,0.34-22.58,0-33.86c-0.14-4.56,1.98-6.2,5.67-7.96
	c79.16-37.68,158.29-75.44,237.33-113.38c6.03-2.89,8.26-3.13,8.02,4.69c-0.48,15.85-0.5,31.74,0.03,47.58
	c0.22,6.57-2.05,9.47-8.03,12c-54.15,22.88-108.15,46.11-162.18,69.29C102.84,300.07,99.66,300.56,97.17,303.77z"/>
<path class="st1" d="M706.81,303.14c-22.9-9.82-44.1-18.93-65.31-28.02c-18.2-7.81-36.33-15.79-54.65-23.3
	c-4.85-1.99-6.46-3.67-4.03-8.98c5.89-12.88,11.43-25.95,16.45-39.18c2.11-5.56,4.16-5.58,9.06-3.22
	c54.58,26.28,109.26,52.35,163.97,78.36c3.7,1.76,5.58,3.69,5.45,8.12c-0.34,10.97-0.37,21.97,0.01,32.95
	c0.17,4.84-1.86,6.76-5.98,8.63c-79.03,35.83-158.01,71.77-236.91,107.88c-6.12,2.8-8.35,2.77-8.13-4.9
	c0.46-15.85,0.46-31.74-0.01-47.59c-0.2-6.68,2.44-9.44,8.43-11.82C591.73,349.57,648.17,326.74,706.81,303.14z"/>
</svg>
